<?xml version="1.0" ?><!DOCTYPE svg  PUBLIC '-//W3C//DTD SVG 1.1//EN'  'http://www.w3.org/Graphics/SVG/1.1/DTD/svg11.dtd'><svg enable-background="new 0 0 48 48" height="48px" id="Layer_3" version="1.1" viewBox="0 0 48 48" width="48px" xml:space="preserve" xmlns="http://www.w3.org/2000/svg" xmlns:xlink="http://www.w3.org/1999/xlink"><path d="M33.021,2.026V0H14.979v2.026H4V48h40V2.026H33.021z M40,42H8V6h6.979v3h18.042V6H40V42z" fill="#241F20"/><g><polygon fill="#241F20" points="36.038,17.181 30.958,22.261 30.967,22.268 24.042,29.193 18.091,23.241 16.161,25.173    22.983,31.995 22.977,32.001 24.022,33.046 24.03,33.04 24.036,33.046 24.503,32.581 24.507,32.585 32.896,24.197 37.974,19.117     "/><polygon fill="#241F20" points="17.907,28.966 11.956,23.015 10.026,24.943 16.848,31.768 16.842,31.773 17.888,32.818    17.895,32.812 17.9,32.818 18.366,32.354 18.371,32.357 19.845,30.883 17.917,28.955  "/><polygon fill="#241F20" points="23.979,26.75 26.76,23.97 31.839,18.891 29.902,16.954 24.823,22.034 24.83,22.04 22.051,24.823     "/></g></svg>