<?xml version="1.0" ?><!DOCTYPE svg  PUBLIC '-//W3C//DTD SVG 1.1//EN'  'http://www.w3.org/Graphics/SVG/1.1/DTD/svg11.dtd'><svg enable-background="new 0 0 32 32" height="32px" version="1.1" viewBox="0 0 32 32" width="32px" xml:space="preserve" xmlns="http://www.w3.org/2000/svg" xmlns:xlink="http://www.w3.org/1999/xlink"><g id="Google"><path d="M29.885,13.5H16.5v5.466h7.618c-0.389,1.91-1.449,3.378-2.966,4.334c-1.309,0.825-2.957,1.268-4.822,1.268   c-3.785,0-7.054-2.679-8.201-6.066C7.888,17.71,7.75,16.872,7.75,16c0-0.942,0.156-1.845,0.436-2.692h0   c1.126-3.418,4.336-5.876,8.145-5.876c2.046,0,3.894,0.725,5.346,1.912L25.9,5.125C23.326,2.884,20.026,1.5,16.33,1.5   c-5.738,0-10.67,3.282-13.032,8.077C2.346,11.51,1.81,13.689,1.81,16c0,2.237,0.512,4.346,1.408,6.233l-0.008,0.006   c0.016,0.032,0.035,0.063,0.051,0.095c0.013,0.028,0.022,0.058,0.036,0.085l0.007-0.005C5.7,27.117,10.663,30.5,16.33,30.5   c3.542,0,6.923-1.258,9.461-3.614c2.666-2.474,4.399-6.16,4.399-10.886C30.19,15.188,30.066,14.318,29.885,13.5z" fill="#FFFFFF"/><path d="M8.186,18.692l-0.019-0.001l0.014-0.011C7.904,17.837,7.75,16.938,7.75,16c0-0.839,0.13-1.645,0.355-2.41   l-3.815-2.913C3.337,12.61,2.8,14.79,2.8,17.1c0,2.309,0.536,4.486,1.487,6.419l4.5-3.444C8.549,19.635,8.344,19.174,8.186,18.692z   " fill="#FFF176"/><path d="M17.321,2.6c-5.738,0-10.67,3.282-13.032,8.077l3.815,2.913c0.027-0.094,0.05-0.189,0.081-0.282h0   c1.126-3.418,4.336-5.876,8.145-5.876c2.046,0,3.894,0.725,5.346,1.912l4.041-4.035C23.343,3.617,20.479,2.6,17.321,2.6z" fill="#FF8A80"/><path d="M25.585,27.059l-4.682-3.629c-1.269,0.732-2.819,1.138-4.574,1.138c-3.268,0-6.089-1.812-7.538-4.483   l-4.503,3.438c0.48,0.976,1.073,1.885,1.752,2.721C8.665,28.874,12.296,30.5,16.33,30.5C19.78,30.5,23.071,29.298,25.585,27.059z" fill="#1AD2A4"/><path d="M29.885,13.5H16.5v3.958l0.573,1.507h7.045c-0.389,1.91-1.449,3.378-2.966,4.334l0,0h0   c-0.078,0.049-0.168,0.083-0.249,0.13l4.682,3.629c0.067-0.06,0.14-0.112,0.206-0.173c2.666-2.474,4.399-6.16,4.399-10.886   C30.19,15.188,30.066,14.318,29.885,13.5z" fill="#80D8FF"/><path d="M16.33,31c-5.777,0-10.942-3.203-13.481-8.358C1.828,20.565,1.31,18.331,1.31,16   c0-2.333,0.518-4.569,1.54-6.644C5.388,4.202,10.553,1,16.33,1c3.66,0,7.083,1.296,9.898,3.748c0.105,0.091,0.167,0.221,0.171,0.36   c0.005,0.139-0.048,0.273-0.146,0.371L22.03,9.697c-0.182,0.181-0.472,0.195-0.67,0.033c-1.44-1.177-3.18-1.799-5.03-1.799   c-3.497,0-6.58,2.224-7.67,5.533C8.388,14.291,8.25,15.144,8.25,16c0,0.854,0.137,1.705,0.408,2.53   c1.091,3.312,4.174,5.538,7.672,5.538c1.744,0,3.319-0.412,4.556-1.191c0.854-0.539,1.534-1.238,2.021-2.081   c0.138-0.239,0.442-0.321,0.684-0.183c0.239,0.139,0.321,0.444,0.183,0.684c-0.569,0.984-1.361,1.8-2.354,2.426   c-1.397,0.88-3.156,1.345-5.089,1.345c-3.93,0-7.395-2.502-8.622-6.226C7.404,17.916,7.25,16.96,7.25,16   c0-0.963,0.155-1.921,0.46-2.849c1.226-3.72,4.689-6.22,8.62-6.22c1.933,0,3.757,0.602,5.305,1.746l3.526-3.521   C22.611,3.089,19.569,2,16.33,2C10.937,2,6.116,4.988,3.747,9.797C2.793,11.734,2.31,13.821,2.31,16c0,2.176,0.483,4.263,1.437,6.2   C6.115,27.011,10.937,30,16.33,30c3.464,0,6.704-1.236,9.121-3.48c2.774-2.575,4.24-6.212,4.24-10.52c0-0.601-0.071-1.272-0.212-2   H17v4.466h7.118c0.276,0,0.5,0.224,0.5,0.5s-0.224,0.5-0.5,0.5H16.5c-0.276,0-0.5-0.224-0.5-0.5V13.5c0-0.276,0.224-0.5,0.5-0.5   h13.385c0.234,0,0.438,0.163,0.488,0.392c0.21,0.95,0.317,1.828,0.317,2.608c0,4.593-1.577,8.484-4.559,11.253   C23.528,29.669,20.048,31,16.33,31z" fill="#455A64"/></g></svg>