<?xml version="1.0" ?><svg id="Layer_5" style="enable-background:new 0 0 61.999 62;" version="1.1" viewBox="0 0 61.999 62" xml:space="preserve" xmlns="http://www.w3.org/2000/svg" xmlns:xlink="http://www.w3.org/1999/xlink"><g><g><g><path d="M42.829,48.83c3.5-3.5,5.78-8.21,6.12-13.4c0.03-0.47,0.05-0.93,0.05-1.39c0-0.01,0-0.03,0-0.04     c0.01-0.82,0.34-1.57,0.87-2.11c0.54-0.55,1.29-0.89,2.13-0.89c1.63,0,3,1.31,3,2.95c0,0.01,0,0.03,0,0.05     c0,15.5-13.06,27.94-28.77,26.94c-13.44-0.85-24.35-11.79-25.18-25.24c-0.56-9.16,3.45-17.42,9.98-22.7l-5.03-6l22.1,3.84     c0.52,0.09,0.9,0.55,0.9,1.07v0.57c0,0.29-0.23,0.52-0.52,0.52c-5.87,0-11.32,2.36-15.25,6.23c-3.47,3.39-5.76,7.95-6.16,13.09     c-0.04,0.57-0.07,1.12-0.07,1.68c0,5.8,2.35,11.05,6.15,14.85c3.8,3.8,9.05,6.15,14.85,6.15c0.56,0,1.12-0.03,1.69-0.07     C34.789,54.53,39.399,52.27,42.829,48.83z" style="fill:#FFEAA7;"/></g><g><path d="M29.999,36.23V41c0,1.1-0.9,2-2,2c-1.1,0-2-0.9-2-2v-4.77c0.53,0.48,1.23,0.77,2,0.77     C28.769,37,29.469,36.71,29.999,36.23z" style="fill:#FF826E;"/></g><g><path d="M23.409,26.59l4.42,4.42c-1.52,0.08-2.74,1.3-2.82,2.82l-4.42-4.42     c-0.38-0.37-0.59-0.88-0.59-1.41s0.21-1.04,0.59-1.41c0.37-0.38,0.88-0.59,1.41-0.59C22.529,26,23.039,26.21,23.409,26.59z" style="fill:#FF826E;"/></g><g><path d="M27.829,31.01c0.06-0.01,0.11-0.01,0.17-0.01c1.66,0,3,1.34,3,3c0,0.89-0.38,1.69-1,2.22v0.01     c-0.53,0.48-1.23,0.77-2,0.77c-0.77,0-1.47-0.29-2-0.77v-0.01c-0.62-0.53-1-1.33-1-2.22c0-0.06,0-0.11,0.01-0.17     C25.089,32.31,26.309,31.09,27.829,31.01z" style="fill:#FC6E51;"/></g><g><rect height="24" style="fill:#D3A06C;" width="28" x="32.999" y="1"/></g><g><rect height="12" style="fill:#B27946;" width="6" x="36.999" y="1"/></g></g><g><rect height="2" width="2" x="45.999" y="4"/><rect height="2" width="8" x="49.999" y="4"/><rect height="2" width="12" x="45.999" y="8"/><rect height="2" width="12" x="45.999" y="12"/><rect height="2" width="2" x="47.999" y="20"/><rect height="2" width="2" x="55.999" y="20"/><rect height="2" width="2" x="51.999" y="20"/><path d="M31.999,0v26h30V0H31.999z M37.999,2h4v10h-4V2z M59.999,24h-26V2h2v12h8V2h16V24z"/><path d="M51.996,30c-1.844,0-3.386,1.278-3.845,3h-6.152v2h5.967c-0.006,0.122-0.004,0.242-0.012,0.364    c-0.305,4.602-2.212,8.788-5.147,12.03l-4.201-4.201l-1.414,1.414l4.203,4.203c-3.181,2.883-7.274,4.775-11.785,5.128    c-0.204,0.016-0.407,0.021-0.61,0.031V48h-2v5.966c-4.601-0.234-8.987-2.035-12.416-5.136l4.223-4.223l-1.414-1.414l-4.223,4.223    C10.067,43.987,8.268,39.603,8.033,35h5.966v-2H8.03c0.01-0.201,0.015-0.402,0.031-0.604c0.35-4.501,2.257-8.576,5.179-11.741    l4.152,4.152l1.414-1.414l-4.137-4.137C18.334,15.992,23.2,14,28.483,14c0.835,0,1.515-0.68,1.515-1.515v-0.571    c0-1.016-0.727-1.881-1.729-2.056L3.476,5.546l6.143,7.331C3.08,18.575-0.482,27.055,0.053,35.766    c0.861,14.029,12.088,25.282,26.114,26.176C26.788,61.981,27.406,62,28.021,62c7.149,0,13.884-2.654,19.132-7.578    c5.621-5.274,8.845-12.718,8.845-20.478C55.994,31.77,54.198,30,51.996,30z M45.785,52.964    c-5.292,4.965-12.209,7.442-19.492,6.981C13.272,59.116,2.849,48.668,2.049,35.643c-0.516-8.406,3.075-16.58,9.607-21.865    l0.791-0.64L8.521,8.454l19.405,3.375c0.042,0.007,0.072,0.043,0.072,0.085v0.091c-11.473,0.242-21.06,9.043-21.932,20.236    c-0.502,6.452,1.823,12.764,6.377,17.318c4.555,4.554,10.87,6.878,17.32,6.373c10.792-0.843,19.469-9.628,20.185-20.436    c0.032-0.488,0.048-0.973,0.049-1.454C50,32.916,50.896,32,51.996,32c1.102,0,2,0.875,2.003,2    C53.999,41.26,51.082,47.995,45.785,52.964z"/><path d="M24.12,25.879c-1.133-1.134-3.109-1.134-4.242,0c-0.567,0.566-0.879,1.32-0.879,2.121s0.312,1.555,0.879,2.121    l4.148,4.148c0.061,0.898,0.415,1.709,0.973,2.348V41c0,1.654,1.346,3,3,3s3-1.346,3-3v-4.382c0.615-0.703,1-1.612,1-2.618    c0-2.113-1.653-3.831-3.731-3.973L24.12,25.879z M20.999,28c0-0.271,0.102-0.515,0.293-0.707c0.384-0.383,1.03-0.383,1.414,0    l3.274,3.274c-0.584,0.345-1.069,0.83-1.414,1.414l-3.274-3.274C21.1,28.515,20.999,28.271,20.999,28z M27.999,42    c-0.551,0-1-0.449-1-1v-3.142c0.322,0.084,0.653,0.142,1,0.142s0.678-0.058,1-0.142V41C28.999,41.551,28.55,42,27.999,42z     M29.999,34c0,1.103-0.897,2-2,2s-2-0.897-2-2s0.897-2,2-2S29.999,32.897,29.999,34z"/></g></g></svg>